<?xml version="1.0" standalone="no"?>
<!DOCTYPE svg PUBLIC "-//W3C//DTD SVG 20010904//EN"
 "http://www.w3.org/TR/2001/REC-SVG-20010904/DTD/svg10.dtd">
<svg version="1.0" xmlns="http://www.w3.org/2000/svg"
 width="512.000000pt" height="512.000000pt" viewBox="0 0 512.000000 512.000000"
 preserveAspectRatio="xMidYMid meet">
<metadata>
Created by potrace 1.14, written by Peter Selinger 2001-2017
</metadata>
<g transform="translate(0.000000,512.000000) scale(0.100000,-0.100000)"
fill="#000000" stroke="none">
<path d="M3547 4724 c-1 -1 -36 -5 -77 -8 -92 -8 -177 -20 -225 -32 -5 -1 -30
-7 -55 -13 -25 -7 -56 -14 -69 -17 -14 -3 -29 -8 -35 -11 -6 -4 -44 -8 -86 -9
-135 -4 -348 -14 -387 -19 -21 -2 -81 -9 -133 -15 -86 -10 -237 -32 -300 -45
-14 -3 -38 -7 -55 -9 -100 -14 -338 -76 -504 -132 -359 -121 -606 -259 -807
-451 -190 -181 -343 -477 -400 -778 -31 -160 -23 -518 16 -765 20 -125 30
-174 68 -340 83 -358 95 -505 53 -640 -60 -196 -150 -323 -414 -581 l-140
-137 8 -38 c9 -49 10 -51 44 -69 129 -66 487 -168 671 -190 25 -3 54 -8 65
-10 78 -16 410 -22 537 -11 606 56 1007 431 1117 1046 18 99 23 150 36 380 7
116 19 167 58 244 60 121 188 210 367 257 94 24 111 23 265 -19 168 -46 295
-61 460 -57 117 3 168 8 205 20 10 3 27 8 37 10 203 42 525 217 813 441 189
148 286 254 350 384 12 25 26 52 30 62 8 13 25 74 47 163 10 40 11 241 2 293
-19 99 -63 215 -120 312 -24 40 -104 137 -134 161 -11 9 -31 27 -45 39 -62 55
-216 177 -250 198 -14 9 -27 19 -30 22 -3 3 -45 32 -95 65 -167 110 -463 246
-585 269 -14 3 -36 7 -50 10 -50 11 -245 26 -253 20z"/>
</g>
</svg>
